<?xml version="1.0" standalone="no"?>
<!DOCTYPE svg PUBLIC "-//W3C//DTD SVG 1.1//EN" "http://www.w3.org/Graphics/SVG/1.1/DTD/svg11.dtd" >
<svg xmlns="http://www.w3.org/2000/svg" xmlns:xlink="http://www.w3.org/1999/xlink" version="1.1">
<metadata>
Created by FontForge 20170924 at Fri May 13 04:10:45 2011
 By www-data
Copyright (c) 2011, Oriol Esparraguera Font (hi@parqink.com|www.parqink.com),
with Reserved Font Name Afta.
</metadata>
<defs>
<font id="Aftasans" horiz-adv-x="222" >
  <font-face 
    font-family="Afta sans"
    font-weight="400"
    font-stretch="normal"
    units-per-em="1000"
    panose-1="2 0 5 3 0 0 0 2 0 4"
    ascent="800"
    descent="-200"
    x-height="518"
    cap-height="715"
    bbox="-27 -235 1337 980"
    underline-thickness="50"
    underline-position="-200"
    unicode-range="U+0020-FB02"
  />
<missing-glyph horiz-adv-x="282" 
 />
    <glyph glyph-name="tt" unicode="tt" horiz-adv-x="632" 
d="M255 475v43h180c9 79 15 126 20 154h46v-154h133v-43h-133v-336c0 -89 7 -102 59 -102c27 0 51 6 72 17v-51c-39 -15 -61 -15 -97 -15c-24 0 -74 6 -92 40c-33 -28 -80 -43 -129 -43c-71 0 -194 -7 -194 153v336h-101v43h100l21 154h45v-533c0 -107 101 -102 145 -102
c22 0 107 21 107 61v378h-182z" />
    <glyph glyph-name="fi" unicode="fi" horiz-adv-x="606" 
d="M165 518h389v-518h-71v475h-317v-475h-65v475h-79v43h79v92c0 144 87 210 192 210c92 0 129 -23 173 -48v33h88v-89h-102c-38 27 -103 62 -152 62c-104 0 -135 -101 -135 -172v-88z" />
    <glyph glyph-name="fl" unicode="fl" horiz-adv-x="602" 
d="M550 1h-71v633c0 96 -54 137 -179 137c-106 -3 -124 -73 -124 -164v-89h127v-44h-127v-474h-66v474h-90v44h90v89c0 172 78 216 190 216c115 0 250 -32 250 -189v-633z" />
    <glyph glyph-name="ti" unicode="ti" horiz-adv-x="547" 
d="M438 56v462h67l4 -506c-107 -23 -166 -27 -193 -27c-72 0 -193 5 -193 153v337h-100v43h99l20 153h47v-153h133v-43h-133v-337c0 -102 118 -102 152 -102c20 0 64 5 97 20zM505 710h-83v85h83v-85z" />
    <glyph glyph-name="th" unicode="th" horiz-adv-x="870" 
d="M791 0v318c0 89 -31 163 -107 163c-114 0 -188 -77 -188 -144v-304c-57 -38 -156 -48 -185 -48c-70 0 -195 15 -195 151v339h-102v43h101l21 153h45v-153h134v-43h-134v-337c0 -95 90 -102 130 -102c19 0 120 8 120 60v699h65v-373c40 59 123 106 210 106
c88 0 153 -71 150 -218v-310h-65z" />
    <glyph glyph-name="ck" unicode="ck" horiz-adv-x="1047" 
d="M895 200l152 -200h-80l-131 169l-59 -25c-1 9 -1 23 -1 52c85 37 211 113 211 203c0 60 -41 100 -97 100c-83 0 -198 -99 -201 -202v-133c-61 -58 -189 -180 -376 -180c-177 0 -273 90 -273 279c0 203 102 269 273 269c57 0 111 -17 162 -38v-57c-52 28 -105 49 -162 49
c-105 0 -203 -35 -203 -221c0 -194 94 -235 203 -235c108 0 228 63 308 148v617h68v-389c45 85 129 144 221 144c83 0 139 -63 139 -140c0 -76 -62 -146 -154 -210z" />
    <glyph glyph-name="mm" unicode="mm" horiz-adv-x="1340" 
d="M1273 0v330c0 76 -7 154 -92 154c-99 0 -146 -84 -146 -164v-320h-66v320c0 85 -19 164 -90 164c-93 0 -144 -85 -147 -159l3 -325h-64v330c0 93 -11 154 -92 154c-100 0 -147 -84 -147 -164v-320h-65v320c0 108 -20 164 -92 164c-101 0 -145 -88 -145 -164v-320h-68v517
h58l10 -99c35 83 110 115 176 115c46 0 103 -34 119 -115c27 60 106 115 184 115c51 0 107 -35 123 -127c26 87 109 127 177 127c47 0 108 -27 121 -115c24 67 105 115 185 115c83 0 122 -55 122 -210v-323h-64z" />
    <glyph glyph-name="oo" unicode="oo" horiz-adv-x="945" 
d="M692 533c191 0 249 -123 249 -272c0 -181 -59 -278 -240 -278c-84 0 -150 34 -203 97c-53 -64 -118 -97 -210 -97c-184 0 -247 130 -247 278c0 174 62 272 240 272c87 0 152 -33 205 -96c55 64 118 96 206 96zM113 261c0 -219 102 -232 175 -232c57 0 172 0 172 232
c0 224 -132 226 -179 226c-57 0 -168 3 -168 -226zM519 261c0 -129 36 -232 182 -232c56 0 167 0 167 232c0 224 -109 226 -176 226c-149 0 -173 -108 -173 -226z" />
    <glyph glyph-name="ff" unicode="ff" horiz-adv-x="626" 
d="M745 749l1 -51c-37 19 -69 30 -112 30c-139 0 -135 -69 -135 -164v-46h129v-43h-129v-686h-63v686h-266v-686h-63v686h-86v43h86v46c0 169 69 216 196 216c44 0 91 -19 124 -38v-52c-43 23 -83 38 -124 38c-135 0 -133 -69 -133 -164v-46h266v46c0 172 72 216 198 216
c36 0 79 -16 111 -31z" />
    <glyph glyph-name="rt" unicode="rt" horiz-adv-x="677" 
d="M145 248v-248h-71v518h60l10 -104c21 83 92 119 146 119c43 0 67 -8 82 -15l-6 -54c-35 11 -52 17 -76 17c-66 0 -145 -16 -145 -233zM481 104v433l20 134h45v-153h134v-43h-134v-336c0 -89 7 -102 59 -102c24 0 49 9 73 20v-55c-43 -12 -73 -14 -98 -14
c-64 0 -99 20 -99 116z" />
    <glyph glyph-name=".notdef" horiz-adv-x="282" 
 />
    <glyph glyph-name="exclam" unicode="!" horiz-adv-x="264" 
d="M95 0v86h85v-86h-85zM169 519l-25 -294h-21l-25 294v213h71v-213z" />
    <glyph glyph-name="quotedbl" unicode="&#x22;" horiz-adv-x="435" 
d="M327 493h-44v237h44v-237zM130 730h46v-237h-46v237z" />
    <glyph glyph-name="numbersign" unicode="#" horiz-adv-x="574" 
d="M414 458h-166l-36 -204h166c18 103 28 155 36 204zM202 458h-130v31h135l36 220h46l-38 -220h168l37 220h47l-39 -220h96v-31h-101l-34 -204h103v-31h-106c-16 -75 -27 -150 -38 -223h-46l37 223h-168c-24 -149 -28 -188 -36 -223h-46l37 223h-116v31h121z" />
    <glyph glyph-name="dollar" unicode="$" horiz-adv-x="585" 
d="M329 344v-317c101 28 159 82 159 147c0 38 -10 106 -159 170zM298 409v299c-97 -17 -160 -66 -160 -145c0 -71 68 -119 160 -154zM329 820v-69c115 -7 179 -28 214 -47v-50c-75 36 -141 50 -214 55v-304c112 -40 238 -92 238 -231c0 -125 -130 -180 -238 -193v-100h-31
v99c-124 5 -205 36 -240 60v65c47 -35 132 -72 240 -77v321c-156 47 -240 106 -240 215c0 85 80 171 240 187v69h31z" />
    <glyph glyph-name="percent" unicode="%" horiz-adv-x="1000" 
d="M795 383c127 0 154 -97 157 -200c-3 -177 -88 -192 -156 -192c-72 0 -160 15 -163 192c3 127 47 200 162 200zM795 6c79 0 118 44 118 177c0 139 -34 182 -118 182c-77 0 -121 -45 -121 -186c0 -136 48 -173 121 -173zM797 740h51l-563 -759h-50zM263 353
c72 0 119 39 119 172c0 141 -50 178 -119 178c-73 0 -120 -37 -120 -181c0 -137 57 -169 120 -169zM263 726c128 0 156 -96 159 -201c-3 -176 -96 -193 -158 -193c-57 0 -159 17 -162 193c3 128 48 201 161 201z" />
    <glyph glyph-name="ampersand" unicode="&#x26;" horiz-adv-x="759" 
d="M408 728c97 -1 158 -30 158 -114c0 -11 -3 -34 -8 -66c139 -24 198 -93 198 -242c0 -101 -34 -183 -125 -250c48 -27 87 -30 110 -30c69 0 115 18 156 41v-53c-36 -20 -82 -30 -159 -30c-53 0 -99 8 -159 45c-73 -33 -156 -47 -252 -47c-207 0 -281 100 -281 272
c0 156 68 221 223 245c-13 56 -22 62 -22 115c0 95 81 114 161 114zM274 473c-109 -29 -162 -55 -162 -215c0 -181 69 -234 217 -234c61 0 130 11 208 33c-124 119 -204 267 -263 416zM546 517c-27 -79 -71 -170 -122 -254c66 -101 90 -129 148 -177c77 37 117 104 117 224
c0 141 -44 172 -143 207zM518 598c0 75 -51 86 -110 86c-68 0 -116 -11 -116 -86c0 -72 70 -213 116 -292c59 115 110 214 110 292z" />
    <glyph glyph-name="quotesingle" unicode="'" horiz-adv-x="286" 
d="M175 493h-45v237h45v-237z" />
    <glyph glyph-name="parenleft" unicode="(" horiz-adv-x="315" 
d="M266 753h36c-53 -82 -164 -288 -164 -484c0 -164 82 -346 157 -482h-29c-35 40 -201 246 -201 482c0 179 92 359 201 484z" />
    <glyph glyph-name="parenright" unicode=")" horiz-adv-x="308" 
d="M22 753h36c113 -139 202 -309 202 -484c0 -238 -168 -440 -201 -482h-31c77 149 159 313 159 482c0 199 -115 404 -165 484z" />
    <glyph glyph-name="asterisk" unicode="*" horiz-adv-x="329" 
d="M184 605c40 -19 116 -61 116 -60l-8 -25l-103 72v-130h-26v130l-103 -72l-8 25c15 9 29 17 43 24c24 13 53 27 73 36c-37 17 -83 36 -116 51c3 11 6 16 9 23l102 -54v106h26v-106l102 54c3 -7 6 -12 9 -23c-33 -15 -79 -34 -116 -51z" />
    <glyph glyph-name="plus" unicode="+" horiz-adv-x="600" 
d="M286 509h45v-235h236v-42h-236v-231h-45v231h-227v42h227v235z" />
    <glyph glyph-name="comma" unicode="," horiz-adv-x="278" 
d="M106 0v84h87c5 -39 8 -72 8 -99c0 -121 -53 -164 -109 -172v35c75 8 74 83 74 152h-60z" />
    <glyph glyph-name="hyphen" unicode="-" horiz-adv-x="398" 
d="M67 304h280v-51h-280v51z" />
    <glyph glyph-name="period" unicode="." horiz-adv-x="271" 
d="M106 -1v84h85v-84h-85z" />
    <glyph glyph-name="slash" unicode="/" horiz-adv-x="347" 
d="M6 -19l304 772h47l-304 -772h-47z" />
    <glyph glyph-name="zero" unicode="0" horiz-adv-x="650" 
d="M343 678c-131 0 -219 -81 -219 -337c0 -248 100 -316 219 -316s212 87 212 323c0 245 -93 330 -212 330zM343 723c113 0 278 -47 278 -375c0 -320 -178 -364 -278 -364c-101 0 -287 44 -287 364c0 316 150 375 287 375z" />
    <glyph glyph-name="one" unicode="1" horiz-adv-x="435" 
d="M173 726h82v-726h-66v674l-43 -12c-21 -7 -42 -12 -42 -11v29c1 0 47 30 69 46z" />
    <glyph glyph-name="two" unicode="2" horiz-adv-x="581" 
d="M117 48h407v-48h-490c5 206 110 277 270 360h-1c96 47 134 109 134 177c0 71 -48 137 -163 142c-93 0 -140 -51 -162 -78c-19 15 -31 26 -50 39c35 45 115 86 211 86c157 0 228 -87 228 -189c0 -96 -55 -176 -179 -236c-107 -53 -200 -129 -205 -253z" />
    <glyph glyph-name="three" unicode="3" horiz-adv-x="620" 
d="M311 679c-94 0 -196 -47 -249 -74v54c63 32 145 68 249 68c120 0 232 -46 232 -166c0 -91 -37 -151 -130 -176c97 -24 177 -62 177 -183c0 -116 -113 -219 -302 -219c-140 0 -218 26 -245 39v53c77 -35 158 -49 239 -49c175 0 224 118 224 176c0 72 -69 155 -201 155h-86
v48h86c129 0 162 69 162 141c0 64 -44 133 -156 133z" />
    <glyph glyph-name="four" unicode="4" horiz-adv-x="676" 
d="M70 244h355v430c-169 -203 -282 -341 -355 -430zM425 201h-388v62c133 156 260 308 393 464h60v-483h165v-43h-165v-201h-65v201z" />
    <glyph glyph-name="five" unicode="5" horiz-adv-x="620" 
d="M107 715h472c-3 -16 -4 -26 -7 -39h-406l-29 -230c35 15 95 37 164 37c168 0 286 -68 286 -233c0 -162 -122 -250 -286 -250c-148 0 -230 37 -257 53v58c80 -39 169 -70 257 -70c156 0 214 120 214 209c0 96 -58 192 -214 192c-71 0 -155 -31 -187 -42l-54 32
c21 139 33 203 41 245c1 11 3 26 6 38z" />
    <glyph glyph-name="six" unicode="6" horiz-adv-x="602" 
d="M133 219c0 -83 65 -189 180 -189c246 0 258 367 28 367c-100 0 -176 -87 -208 -178zM567 659l-4 -58c-47 29 -133 76 -227 76c-206 0 -224 -252 -216 -392c16 49 96 160 221 160c320 0 326 -455 -27 -455c-160 0 -262 83 -262 366c0 275 128 371 284 371
c94 0 162 -34 231 -68z" />
    <glyph glyph-name="seven" unicode="7" horiz-adv-x="613" 
d="M56 672l16 37h504c0 -66 -25 -85 -51 -122c1 0 -69 -89 -158 -199c-39 -56 -57 -111 -57 -179v-209h-68v209c0 95 34 153 69 200c73 95 139 178 208 263h-463z" />
    <glyph glyph-name="eight" unicode="8" horiz-adv-x="613" 
d="M349 445c13 3 130 53 130 131c0 91 -92 104 -164 104c-68 0 -164 -28 -164 -104c0 -72 145 -115 198 -131zM280 402c-100 -31 -164 -103 -164 -207c0 -120 107 -165 200 -165c108 0 202 62 202 165c0 127 -126 199 -238 207zM224 416c-44 18 -145 70 -145 151
c0 101 84 159 237 159c159 0 233 -72 233 -159c0 -68 -52 -117 -141 -149c96 -45 181 -110 181 -223c0 -140 -118 -212 -274 -212c-147 0 -266 50 -266 212c0 124 122 200 175 221z" />
    <glyph glyph-name="colon" unicode=":" horiz-adv-x="281" 
d="M106 -1v84h85v-84h-85zM191 433h-85v84h85v-84z" />
    <glyph glyph-name="semicolon" unicode=";" horiz-adv-x="287" 
d="M166 0h-60v84h87c5 -39 8 -72 8 -99c0 -121 -53 -164 -109 -172v35c75 8 74 83 74 152zM191 433h-85v84h85v-84z" />
    <glyph glyph-name="less" unicode="&#x3c;" horiz-adv-x="621" 
d="M590 511v-53l-489 -205l498 -204v-51c-184 74 -356 163 -540 237v39c175 72 356 165 531 237z" />
    <glyph glyph-name="equal" unicode="=" horiz-adv-x="598" 
d="M59 169h501v-41h-501v41zM59 378h501v-43h-501v43z" />
    <glyph glyph-name="greater" unicode="&#x3e;" horiz-adv-x="618" 
d="M57 458v53c175 -72 356 -165 531 -237v-39c-184 -74 -356 -163 -540 -237v51l498 204z" />
    <glyph glyph-name="question" unicode="?" horiz-adv-x="581" 
d="M276 223h-40c5 109 70 163 115 200c48 40 93 72 93 152c0 73 -52 125 -176 125c-85 0 -154 -31 -195 -50v69c51 21 131 32 195 32c139 0 246 -51 246 -176c0 -85 -58 -134 -113 -176c-57 -44 -112 -97 -125 -176zM219 -1v84h84v-84h-84z" />
    <glyph glyph-name="at" unicode="@" horiz-adv-x="817" 
d="M497 347l9 52c-9 11 -58 73 -97 73c-43 0 -65 -38 -65 -114c0 -57 26 -84 69 -84c35 0 79 41 84 73zM806 441c0 -107 -45 -231 -193 -231c-71 0 -108 42 -119 69c-27 -48 -72 -56 -100 -56c-61 0 -116 30 -116 142c0 84 37 161 120 161c27 0 78 -19 115 -70
c4 27 11 43 16 62c2 0 -2 0 50 -18c-8 -59 -21 -131 -21 -187c0 -41 20 -61 61 -61c76 0 111 89 111 197c0 171 -151 255 -298 255c-48 0 -304 -1 -304 -337c0 -350 266 -339 345 -339c105 0 224 43 316 95v-85c-117 -43 -236 -56 -353 -56c-265 0 -392 157 -387 384
c0 237 163 386 386 386c205 0 371 -102 371 -311z" />
    <glyph glyph-name="A" unicode="A" horiz-adv-x="651" 
d="M470 314l-127 368l-142 -368h269zM11 0l282 715h103l251 -715h-74l-90 272h-292l-111 -272h-69z" />
    <glyph glyph-name="B" unicode="B" horiz-adv-x="685" 
d="M158 367v-334l150 -7c213 -5 265 68 265 177c0 104 -86 164 -211 164h-204zM158 412h159c136 0 192 36 192 127c0 81 -52 132 -185 132h-166v-259zM93 714h230c197 0 261 -78 261 -175c0 -86 -62 -133 -145 -144c116 -19 213 -78 213 -200c0 -108 -55 -213 -290 -208
c-180 3 -243 9 -267 12c0 244 -2 471 -2 715z" />
    <glyph glyph-name="C" unicode="C" horiz-adv-x="680" 
d="M426 731c68 0 135 -16 192 -33v-61c-61 29 -123 52 -192 52c-16 0 -273 -6 -285 -334c4 -331 258 -325 285 -325c81 0 146 35 199 78v-69c-31 -21 -102 -60 -199 -60c-237 0 -364 169 -367 375c0 245 165 377 367 377z" />
    <glyph glyph-name="D" unicode="D" horiz-adv-x="682" 
d="M157 665v-582c0 -38 1 -39 25 -39h91c117 0 287 72 287 311c0 229 -170 318 -287 318c-91 0 -116 -1 -116 -8zM92 716h180c267 0 368 -217 368 -361c0 -145 -79 -354 -367 -354h-181v715z" />
    <glyph glyph-name="E" unicode="E" horiz-adv-x="568" 
d="M94 0v714h415v-42h-352v-287h261v-43h-261v-299h376v-43h-439z" />
    <glyph glyph-name="F" unicode="F" horiz-adv-x="579" 
d="M94 0v714h462v-44h-398v-285h247v-50h-247v-335h-64z" />
    <glyph glyph-name="H" unicode="H" horiz-adv-x="750" 
d="M617 381v334h65v-715h-65v336h-452v-336h-72v715h72v-334h452z" />
    <glyph glyph-name="I" unicode="I" horiz-adv-x="259" 
d="M103 0v715h64v-715h-64z" />
    <glyph glyph-name="J" unicode="J" horiz-adv-x="272" 
d="M121 716h62v-738c0 -142 -83 -174 -122 -182v37c43 43 60 81 60 145v738z" />
    <glyph glyph-name="K" unicode="K" horiz-adv-x="626" 
d="M151 307l351 408h68l-235 -279l289 -436h-78l-254 384l-141 -154v-230h-64v715h64v-408z" />
    <glyph glyph-name="L" unicode="L" horiz-adv-x="535" 
d="M182 45h349v-45h-437v715h66v-644c0 -27 -1 -26 22 -26z" />
    <glyph glyph-name="M" unicode="M" horiz-adv-x="920" 
d="M518 84h-74l-286 590c0 -212 -3 -443 -3 -674h-63v715h122l242 -536c18 -39 39 -23 49 0c208 467 226 505 238 536h113v-715h-64l-1 675z" />
    <glyph glyph-name="N" unicode="N" horiz-adv-x="711" 
d="M91 0v714h95l397 -638v638h66v-714h-75l-419 673v-673h-64z" />
    <glyph glyph-name="O" unicode="O" horiz-adv-x="824" 
d="M125 357c0 -343 251 -332 299 -332c41 0 308 1 308 332c0 336 -268 330 -309 330c-48 0 -298 -2 -298 -330zM424 731c261 -4 375 -130 375 -375c0 -212 -105 -376 -375 -376c-275 0 -374 151 -377 376c0 245 138 371 377 375z" />
    <glyph glyph-name="P" unicode="P" horiz-adv-x="616" 
d="M159 671v-324h182c140 0 177 114 177 158c0 70 -37 166 -177 166h-182zM95 714l246 1c189 0 253 -113 253 -210c0 -91 -60 -204 -253 -204h-182v-302h-64v715z" />
    <glyph glyph-name="Q" unicode="Q" horiz-adv-x="821" 
d="M125 354c0 -343 251 -332 299 -332c41 0 307 1 307 332c0 336 -266 330 -308 330c-48 0 -298 -2 -298 -330zM424 728c261 -4 375 -130 375 -375c0 -202 -96 -357 -353 -376v-33c0 -98 79 -135 127 -140v-11c-161 8 -178 116 -178 152v32c-254 19 -345 169 -348 376
c0 245 138 371 377 375z" />
    <glyph glyph-name="R" unicode="R" horiz-adv-x="662" 
d="M155 397h177c133 0 169 79 169 138c0 63 -43 136 -169 136h-177v-274zM92 715h240c162 0 237 -73 237 -171c0 -112 -86 -164 -155 -172c69 -16 89 -63 110 -115l103 -257h-66c-80 202 -109 275 -114 286c-20 43 -46 62 -91 62h-201v-348h-63v715z" />
    <glyph glyph-name="S" unicode="S" horiz-adv-x="588" 
d="M531 689v-51c-93 43 -154 50 -227 50c-91 0 -169 -50 -169 -138c0 -84 57 -120 156 -147c111 -34 262 -81 262 -233c0 -157 -174 -190 -270 -190c-117 0 -192 34 -227 58v66c50 -37 135 -76 227 -76c109 0 194 63 194 142c0 46 -9 125 -183 171h1
c-152 43 -239 95 -239 210c0 93 86 180 249 180c130 0 188 -23 226 -42z" />
    <glyph glyph-name="T" unicode="T" horiz-adv-x="616" 
d="M621 716v-43h-267v-673h-67v673h-275v43h609z" />
    <glyph glyph-name="U" unicode="U" horiz-adv-x="717" 
d="M580 715h63v-409c0 -108 3 -319 -274 -319c-281 0 -282 212 -282 327v401h65v-409c0 -63 1 -272 217 -272c211 0 211 207 211 272v409z" />
    <glyph glyph-name="V" unicode="V" horiz-adv-x="683" 
d="M650 715l-271 -715h-97l-261 715h70l240 -669l240 669h79z" />
    <glyph glyph-name="W" unicode="W" horiz-adv-x="1060" 
d="M18 715h74l242 -666l172 666h82l168 -668l237 668h76l-260 -715h-97l-165 679l-167 -679h-97z" />
    <glyph glyph-name="X" unicode="X" horiz-adv-x="683" 
d="M32 -1l285 369l-269 347h78l224 -298l226 298h78l-263 -347l278 -369h-69l-250 321l-248 -321h-70z" />
    <glyph glyph-name="Y" unicode="Y" horiz-adv-x="690" 
d="M318 268l-289 447h73l250 -396l253 396h74l-289 -447v-269h-72v269z" />
    <glyph glyph-name="Z" unicode="Z" horiz-adv-x="655" 
d="M102 50h539v-50h-607v67l548 605h-548v43h607v-66z" />
    <glyph glyph-name="bracketleft" unicode="[" horiz-adv-x="324" 
d="M323 750v-45h-158v-874h158v-44h-233v963h233z" />
    <glyph glyph-name="bracketright" unicode="]" horiz-adv-x="324" 
d="M15 750h232v-962h-232v46h158v871h-158v45z" />
    <glyph glyph-name="asciicircum" unicode="^" horiz-adv-x="602" 
d="M124 290l-51 -1l225 421v1h36c64 -138 159 -291 228 -430h-47l-199 393c-98 -210 -155 -301 -192 -384z" />
    <glyph glyph-name="underscore" unicode="_" horiz-adv-x="500" 
d="M10 -120h501v-19h-501v19z" />
    <glyph glyph-name="grave" unicode="`" 
d="M4 751h78l50 -112h-42z" />
    <glyph glyph-name="a" unicode="a" horiz-adv-x="463" 
d="M353 98l2 175c-60 -15 -97 -15 -142 -15c-48 0 -109 1 -109 -111c0 -77 50 -111 113 -111c44 0 93 21 136 62zM420 331v-331h-47l-33 37c-46 -24 -89 -44 -171 -44c-77 0 -131 54 -131 155c0 80 37 153 161 153c102 0 125 0 154 27c0 142 -29 157 -116 157
c-69 0 -117 -18 -148 -30c-7 19 -9 27 -17 44c47 20 107 34 171 34c96 0 177 -38 177 -202z" />
    <glyph glyph-name="b" unicode="b" horiz-adv-x="514" 
d="M119 241v-178c43 -23 95 -34 138 -34c138 0 159 137 159 246c0 101 -17 213 -109 213c-128 0 -188 -177 -188 -247zM52 25l-2 769h67v-410c16 62 90 149 192 149c100 0 176 -63 176 -258c0 -200 -75 -287 -244 -287c-77 0 -146 20 -189 37z" />
    <glyph glyph-name="c" unicode="c" horiz-adv-x="509" 
d="M323 30c69 0 135 24 174 43c0 -35 1 -46 1 -58c-61 -19 -108 -31 -175 -31c-180 0 -270 87 -270 279c0 203 102 269 270 269c67 0 124 -21 165 -44v-53c-56 25 -109 51 -165 51c-105 0 -203 -35 -203 -221c0 -194 94 -235 203 -235z" />
    <glyph glyph-name="d" unicode="d" horiz-adv-x="538" 
d="M423 222l1 226c-35 16 -117 43 -167 43c-141 0 -138 -181 -138 -229c0 -85 14 -230 132 -230c120 0 172 67 172 190zM424 68c-31 -47 -89 -80 -173 -80c-108 0 -199 69 -199 273c0 200 98 276 205 276c35 0 96 -9 167 -36v292h67v-797h-63c0 13 -4 20 -4 72z" />
    <glyph glyph-name="e" unicode="e" horiz-adv-x="521" 
d="M127 305l307 1c-1 49 -13 90 -33 125c-23 36 -57 55 -113 55c-116 0 -161 -88 -161 -181zM288 25c81 0 132 50 153 81c31 -24 37 -30 44 -35c-61 -72 -133 -87 -197 -87c-178 0 -232 102 -235 263c0 179 72 285 235 285c136 0 206 -86 205 -269l-374 1
c0 -140 10 -239 169 -239z" />
    <glyph glyph-name="f" unicode="f" horiz-adv-x="322" 
d="M422 748l1 -51c-36 19 -68 30 -111 30c-139 0 -135 -69 -135 -164v-45h129v-43h-129v-475h-64v475h-86v43h86v45c0 169 71 216 199 216c55 0 91 -19 110 -31z" />
    <glyph glyph-name="h" unicode="h" horiz-adv-x="569" 
d="M442 0v320c0 104 -42 163 -126 163c-91 0 -171 -72 -171 -152v-331h-66v795h66v-384c27 64 120 122 201 122c93 0 160 -71 160 -220v-313h-64z" />
    <glyph glyph-name="i" unicode="i" horiz-adv-x="229" 
d="M160 711h-85v85h85v-85zM92 0v518h68v-518h-68z" />
    <glyph glyph-name="j" unicode="j" horiz-adv-x="231" 
d="M161 518v-534c0 -158 -88 -190 -131 -198c1 19 1 32 1 45c41 37 62 87 62 143v544h68zM161 796v-85h-84v85h84z" />
    <glyph glyph-name="k" unicode="k" horiz-adv-x="538" 
d="M357 200l152 -200h-79l-130 170l-61 -27v53c84 35 213 110 213 203c0 60 -41 100 -97 100c-83 0 -198 -99 -201 -202v-297h-68v794h68v-383c56 87 132 139 220 139c85 0 138 -63 138 -140c0 -76 -59 -146 -155 -210z" />
    <glyph glyph-name="l" unicode="l" horiz-adv-x="229" 
d="M158 0h-66v794h66v-794z" />
    <glyph glyph-name="m" unicode="m" horiz-adv-x="789" 
d="M684 0v330c0 93 -12 154 -93 154c-101 0 -146 -84 -146 -164v-320h-68v320c0 105 -19 164 -91 164c-101 0 -146 -105 -146 -181v-303h-66v517h59l6 -110c27 81 89 126 177 126c57 0 96 -37 120 -126c29 66 88 126 186 126c84 0 123 -62 123 -210l3 -323h-64z" />
    <glyph glyph-name="n" unicode="n" horiz-adv-x="562" 
d="M445 0v320c0 104 -42 163 -126 163c-91 0 -171 -72 -171 -152v-331h-66v518h59l6 -103c26 63 121 118 202 118c95 0 160 -71 160 -220v-313h-64z" />
    <glyph glyph-name="o" unicode="o" horiz-adv-x="563" 
d="M118 261c0 -219 101 -232 176 -232c58 0 160 1 160 232c0 224 -103 226 -171 226c-69 0 -165 3 -165 -226zM283 533c192 0 246 -123 246 -272c0 -181 -52 -278 -235 -278s-245 130 -245 278c0 174 60 272 234 272z" />
    <glyph glyph-name="p" unicode="p" horiz-adv-x="544" 
d="M328 490c-124 0 -185 -121 -185 -196v-223c44 -23 72 -30 121 -30c151 0 174 114 174 219s-10 230 -110 230zM142 11v-224h-64v730h52l12 -120c8 37 82 137 186 137c128 0 174 -105 174 -274c0 -188 -72 -268 -244 -268c-36 0 -75 8 -116 19z" />
    <glyph glyph-name="q" unicode="q" horiz-adv-x="540" 
d="M227 31c123 0 185 121 185 196v223c-43 23 -91 39 -140 39c-134 0 -156 -124 -156 -228c0 -105 11 -230 111 -230zM477 -211h-65v320c-35 -53 -92 -121 -185 -121c-128 0 -174 105 -174 273c0 188 72 268 243 268c77 0 149 -28 181 -44v-696z" />
    <glyph glyph-name="r" unicode="r" horiz-adv-x="367" 
d="M147 0h-69v517h55l14 -114c27 69 60 129 145 129c43 0 67 -8 80 -13l-4 -55c-39 12 -53 16 -76 16c-68 0 -145 -59 -145 -232v-248z" />
    <glyph glyph-name="s" unicode="s" horiz-adv-x="472" 
d="M235 528c91 0 155 -31 192 -47c0 -15 1 -35 1 -48c-65 28 -125 53 -193 53c-53 0 -108 -12 -108 -89c0 -64 37 -77 117 -98c141 -35 210 -80 210 -161c0 -96 -83 -153 -205 -153c-104 0 -180 41 -205 58c0 23 1 42 1 65c61 -36 129 -73 204 -73c71 0 135 20 135 103
c0 68 -86 91 -186 118c-110 32 -142 74 -142 143c0 48 30 129 179 129z" />
    <glyph glyph-name="u" unicode="u" horiz-adv-x="574" 
d="M146 518v-330c0 -103 24 -160 112 -160c89 0 187 67 187 176v314h65v-518h-60l-5 108c-31 -80 -104 -125 -203 -125c-89 0 -164 54 -164 214v321h68z" />
    <glyph glyph-name="v" unicode="v" horiz-adv-x="548" 
d="M33 518h69l179 -459c1 0 196 457 192 459h67l-226 -518h-63z" />
    <glyph glyph-name="w" unicode="w" horiz-adv-x="787" 
d="M27 518h63l126 -468c1 0 177 467 177 468h54l163 -469l110 469h64l-130 -518h-82l-152 477l-170 -477h-77z" />
    <glyph glyph-name="x" unicode="x" horiz-adv-x="511" 
d="M262 223l-166 -222h-71l201 270l-180 247h78l137 -198l141 198h77l-179 -247l198 -270h-68z" />
    <glyph glyph-name="y" unicode="y" horiz-adv-x="535" 
d="M257 -52l-227 570h68l193 -518l168 518h68l-261 -730h-58z" />
    <glyph glyph-name="z" unicode="z" horiz-adv-x="458" 
d="M109 53h330v-53h-402v53l333 421h-333v44h410v-44z" />
    <glyph glyph-name="braceleft" unicode="{" horiz-adv-x="447" 
d="M430 -167v-46h-68c-107 0 -209 51 -209 210v153c0 69 -60 87 -87 98v46c43 17 83 46 87 102v155c0 147 102 202 209 202h68v-47h-58c-28 0 -150 0 -150 -109v-200c0 -42 -18 -99 -63 -107v-38c47 -9 63 -57 63 -102v-210c0 -111 122 -107 150 -107h58z" />
    <glyph glyph-name="bar" unicode="|" horiz-adv-x="229" 
d="M100 -234v1043h47v-1043h-47z" />
    <glyph glyph-name="braceright" unicode="}" horiz-adv-x="444" 
d="M105 -213h-68v46h58c32 0 151 -4 151 107v210c0 47 16 92 63 101v38c-48 8 -63 66 -63 108v200c0 109 -119 109 -151 109h-58v47h68c109 0 210 -55 210 -202v-154c0 -68 55 -92 87 -103v-47c-40 -16 -84 -50 -87 -97v-153c0 -159 -101 -210 -210 -210z" />
    <glyph glyph-name="asciitilde" unicode="~" horiz-adv-x="600" 
d="M207 216c-35 0 -72 -11 -99 -19c0 19 -2 24 -2 40c37 17 67 31 103 31c95 0 107 -28 210 -28c39 0 72 10 99 22v-45c-55 -23 -79 -28 -99 -28c-99 0 -114 27 -212 27z" />
    <glyph glyph-name="ccedilla" unicode="&#xe7;" horiz-adv-x="531" 
d="M292 -84c-13 0 -24 0 -35 -1c7 5 6 6 38 67c-160 29 -239 118 -239 279c0 202 102 267 270 267c68 0 128 -17 165 -36v-56c-47 27 -109 48 -165 48c-105 0 -203 -35 -203 -221c0 -194 94 -235 203 -235c69 0 135 24 174 43c0 -29 0 -49 1 -60c-59 -17 -107 -29 -175 -29
h-29l-20 -54c85 3 113 -33 113 -74c0 -43 -32 -67 -80 -71h1c-35 0 -50 2 -67 6v21c15 -7 32 -10 48 -10c19 0 61 9 61 54c0 41 -20 62 -61 62z" />
    <glyph glyph-name="degree" unicode="&#xb0;" horiz-adv-x="400" 
d="M104 577c0 -115 85 -110 99 -110c16 0 104 0 104 110c0 111 -88 110 -104 110s-99 0 -99 -110zM203 719c100 -1 141 -50 141 -142c0 -80 -39 -140 -141 -140c-101 0 -139 56 -139 140c0 93 52 141 139 142z" />
    <glyph glyph-name="sterling" unicode="&#xa3;" horiz-adv-x="585" 
d="M539 198c0 78 -31 115 -52 136c9 11 18 19 26 28c53 -52 63 -112 63 -164c0 -143 -112 -203 -236 -198h-291v43c81 12 111 75 111 162v155h-49v45h49v174c0 120 97 170 191 170c57 0 87 -11 112 -26v-43c-43 20 -73 25 -104 25c-105 0 -121 -73 -121 -149v-151h113v-45
h-113v-155c0 -95 -35 -134 -81 -161l177 -2c135 0 197 56 205 156z" />
    <glyph glyph-name="section" unicode="&#xa7;" horiz-adv-x="556" 
d="M365 84c57 -22 121 -61 121 -146c0 -98 -83 -151 -205 -151c-99 0 -171 41 -204 57v67c60 -39 133 -74 204 -74c77 0 138 17 138 101c0 65 -89 133 -189 133c-117 0 -174 85 -174 196c0 62 28 159 151 199c-61 37 -86 76 -86 153c0 51 27 126 179 126
c97 0 165 -32 193 -46v-49c-80 39 -156 52 -193 52c-54 0 -110 -11 -110 -88c0 -68 44 -128 172 -155c88 -19 158 -63 158 -192c0 -64 -37 -161 -155 -183zM235 419c-56 0 -111 -64 -111 -131c0 -131 15 -173 191 -173c69 0 135 59 135 152c0 141 -72 147 -215 152z" />
    <glyph glyph-name="bullet" unicode="&#x2022;" horiz-adv-x="500" 
d="M78 364c0 100 81 181 181 181s181 -81 181 -181s-81 -181 -181 -181s-181 81 -181 181z" />
    <glyph glyph-name="germandbls" unicode="&#xdf;" horiz-adv-x="572" 
d="M441 205c0 71 -19 136 -170 168v52c104 5 157 44 157 140c0 104 -73 135 -149 135c-114 0 -131 -57 -131 -202v-498h-71v450c0 168 6 302 202 302c80 0 207 -32 207 -188c0 -69 -35 -140 -150 -164c96 -24 183 -80 183 -197c0 -189 -136 -211 -252 -211v47
c113 11 174 66 174 166z" />
    <glyph glyph-name="acute" unicode="&#xb4;" 
d="M130 742h102l-98 -128h-61z" />
    <glyph glyph-name="dieresis" unicode="&#xa8;" 
d="M170 707h84v-98h-84v98zM-27 707h83v-98h-83v98zM170 707h84v-98h-84v98zM-27 707h83v-98h-83v98z" />
    <glyph glyph-name="AE" unicode="&#xc6;" horiz-adv-x="1041" 
d="M607 672l-260 -357h258zM62 1l525 713h432v-42h-346c0 -188 1 -241 1 -287h256v-43h-256l2 -299h368v-43h-439v273h-281l-206 -272h-56z" />
    <glyph glyph-name="ae" unicode="&#xe6;" horiz-adv-x="826" 
d="M235 491c-84 0 -131 -53 -155 -82l-13 10c-12 11 -19 17 -30 25c60 69 134 88 198 88c85 0 151 -34 200 -91c55 61 119 91 194 91c125 0 206 -69 206 -240h-368c0 -137 3 -267 163 -267c80 0 131 52 153 82c19 -13 26 -22 43 -35c-60 -76 -132 -88 -196 -88
c-89 0 -150 33 -203 90c-54 -60 -118 -90 -191 -90c-125 0 -206 71 -206 240h368c0 137 -3 267 -163 267zM475 333h302c-5 60 -47 153 -148 153c-116 0 -149 -82 -154 -153zM389 183h-300c3 -60 44 -153 147 -153c116 0 148 82 153 153z" />
    <glyph glyph-name="questiondown" unicode="&#xbf;" horiz-adv-x="562" 
d="M197 118c56 43 116 89 124 175h38c-8 -108 -65 -162 -113 -199c-48 -40 -93 -77 -93 -153c0 -73 53 -125 177 -125c79 0 150 31 191 50v-68c-61 -21 -108 -33 -191 -33c-143 0 -250 51 -250 176c0 84 51 124 117 177zM377 517v-84h-84v84h84z" />
    <glyph glyph-name="exclamdown" unicode="&#xa1;" horiz-adv-x="264" 
d="M180 515v-84h-84v84h84zM106 -4l25 294h21l25 -294v-213h-71v213z" />
    <glyph glyph-name="guillemotleft" unicode="&#xab;" horiz-adv-x="562" 
d="M65 282c0 8 4 15 12 20l170 121c0 -19 1 -38 -12 -45l-135 -96c25 -19 118 -85 131 -93c17 -12 16 -33 16 -49l-169 122c-9 5 -13 12 -13 20zM315 282c0 8 4 15 12 20l170 121c0 -19 1 -38 -12 -45l-135 -96c25 -19 118 -85 131 -93c17 -12 16 -33 16 -49l-169 122
c-9 5 -13 12 -13 20z" />
    <glyph glyph-name="guillemotright" unicode="&#xbb;" horiz-adv-x="555" 
d="M512 282c0 -8 -4 -15 -13 -20l-169 -122c0 16 -1 37 16 49c13 8 106 74 131 93l-135 96c-13 7 -12 26 -12 45l170 -121c8 -5 12 -12 12 -20zM262 282c0 -8 -4 -15 -13 -20l-169 -122c0 16 -1 37 16 49c13 8 106 74 131 93l-135 96c-13 7 -12 26 -12 45l170 -121
c8 -5 12 -12 12 -20z" />
    <glyph glyph-name="endash" unicode="&#x2013;" horiz-adv-x="500" 
d="M12 304h499v-51h-499v51z" />
    <glyph glyph-name="emdash" unicode="&#x2014;" horiz-adv-x="1000" 
d="M143 253v51h759v-51h-759z" />
    <glyph glyph-name="quotedblleft" unicode="&#x201c;" horiz-adv-x="440" 
d="M183 721v-38c-73 -11 -75 -77 -75 -150h62v-85h-87c-7 37 -10 71 -10 100c0 121 56 162 110 173zM317 533h60v-85h-87c-4 39 -7 71 -7 100c0 122 52 162 108 173v-38c-71 -10 -74 -77 -74 -150z" />
    <glyph glyph-name="quotedblright" unicode="&#x201d;" horiz-adv-x="444" 
d="M290 637v85h88c8 -40 9 -71 9 -102c0 -121 -54 -161 -109 -171v36c75 8 74 80 74 152h-62zM84 637v85h87c4 -39 8 -73 8 -102c0 -121 -56 -160 -110 -171v36c74 8 75 80 75 152h-60z" />
    <glyph glyph-name="quoteleft" unicode="&#x2018;" horiz-adv-x="278" 
d="M125 533h62v-85h-87c-7 40 -9 69 -9 100c0 121 53 165 109 173v-39c-72 -8 -75 -77 -75 -149z" />
    <glyph glyph-name="quoteright" unicode="&#x2019;" horiz-adv-x="278" 
d="M103 637v85h87c5 -39 8 -73 8 -102c0 -121 -56 -160 -109 -171v36c75 8 74 80 74 152h-60z" />
    <glyph glyph-name="Euro" unicode="&#x20ac;" horiz-adv-x="615" 
d="M53 481h61c37 192 133 288 288 288c73 0 140 -19 195 -35v-62c-60 27 -127 53 -195 53c-66 0 -167 -21 -207 -244h251l-7 -21h-244c-3 -69 -5 -92 3 -167h193c-1 -8 -2 -15 -5 -22h-187c55 -222 190 -218 203 -218c87 0 150 34 203 77v-70c-35 -24 -104 -60 -203 -60
c-136 0 -247 101 -289 271h-73l13 22h59c-3 60 -6 112 1 167h-73z" />
    <glyph glyph-name="guilsinglleft" unicode="&#x2039;" horiz-adv-x="306" 
d="M71 282c0 8 4 15 12 20l170 121c0 -19 1 -38 -12 -45l-135 -96c25 -19 118 -85 131 -93c17 -12 16 -33 16 -49l-169 122c-9 5 -13 12 -13 20z" />
    <glyph glyph-name="guilsinglright" unicode="&#x203a;" horiz-adv-x="311" 
d="M257 282c0 -8 -4 -15 -13 -20l-169 -122c0 16 -1 37 16 49c13 8 106 74 131 93l-135 96c-13 7 -12 26 -12 45l170 -121c8 -5 12 -12 12 -20z" />
    <glyph glyph-name="dotlessi" unicode="&#x131;" horiz-adv-x="241" 
d="M92 0v518h68v-518h-68z" />
    <glyph glyph-name="circumflex" unicode="&#x2c6;" horiz-adv-x="240" 
d="M201 625l-80 103l-79 -103h-43l103 129h39l103 -129h-43z" />
    <glyph glyph-name="tilde" unicode="&#x2dc;" 
d="M-17 662l-1 43c5 8 20 20 57 20c53 0 103 -28 159 -28c27 0 47 3 63 10v-38c-19 -15 -39 -23 -62 -23c-60 0 -102 26 -162 26c-19 0 -37 -3 -54 -10z" />
    <glyph glyph-name="cedilla" unicode="&#xb8;" horiz-adv-x="245" 
d="M109 -90c-12 0 -25 -2 -37 -5c8 8 29 59 51 97h7l-41 -80c88 8 117 -37 117 -73c0 -45 -32 -68 -81 -73c-25 0 -44 1 -64 8v20c17 -7 33 -10 48 -10c19 0 61 4 61 55c0 41 -20 61 -61 61z" />
    <glyph glyph-name="twosuperior" unicode="&#xb2;" horiz-adv-x="348" 
d="M72 311h248v-11h-281c8 104 71 162 158 202c60 31 87 73 87 116c0 51 -26 97 -110 97c-52 0 -82 -27 -97 -44c-3 1 -13 6 -18 10c28 27 65 45 116 45c92 0 131 -49 131 -108c0 -55 -31 -99 -102 -134c-75 -37 -132 -79 -132 -173z" />
    <glyph glyph-name="threesuperior" unicode="&#xb3;" horiz-adv-x="341" 
d="M174 713c-53 0 -106 -22 -139 -37v14c32 16 78 37 139 37c68 0 132 -25 132 -101c0 -60 -39 -88 -82 -100c43 -8 111 -28 111 -108c0 -65 -66 -123 -174 -123c-80 0 -122 11 -141 18v19h1c43 -12 81 -20 137 -20c112 0 143 66 143 106c0 43 -43 102 -131 102h-42v13h42
c84 0 108 42 108 93c0 43 -28 87 -104 87z" />
    <glyph glyph-name="G" unicode="G" horiz-adv-x="794" 
d="M676 301h66v-263c-64 -21 -191 -58 -306 -58c-283 -3 -383 155 -383 379s136 373 372 373c133 0 233 -26 262 -37v-67c-62 22 -126 60 -262 60c-201 0 -297 -148 -297 -335c0 -332 256 -323 308 -323c96 0 171 14 240 61v210z" />
    <glyph glyph-name="nine" unicode="9" horiz-adv-x="602" 
d="M494 498c0 83 -65 189 -180 189c-246 0 -257 -367 -28 -367c100 0 176 87 208 178zM60 58l4 58c47 -29 133 -76 227 -76c206 0 224 252 216 392c-16 -49 -96 -160 -221 -160c-320 0 -326 455 27 455c160 0 262 -83 262 -366c0 -275 -128 -371 -284 -371
c-94 0 -162 34 -231 68z" />
    <glyph glyph-name="t" unicode="t" horiz-adv-x="344" 
d="M25 518h101c7 48 13 104 20 153h45v-153h134v-43h-134v-336c0 -89 8 -102 59 -102c28 0 54 7 73 16v-50c-47 -11 -75 -15 -98 -15c-63 0 -98 20 -98 116v371h-102v43z" />
    <glyph glyph-name="ellipsis" unicode="&#x2026;" horiz-adv-x="813" 
d="M93 -1v84h85v-84h-85zM387 -1v84h85v-84h-85zM681 -1v84h84v-84h-84z" />
    <glyph glyph-name="yen" unicode="&#xa5;" horiz-adv-x="690" 
d="M289 325l-265 406h83l245 -403c81 129 173 274 256 403h84l-265 -406h174v-41h-206v-169h206v-40h-206v-75h-74v75h-203v40h203v169h-203v41h171z" />
    <glyph glyph-name="cent" unicode="&#xa2;" horiz-adv-x="509" 
d="M288 529v75h33v-75c79 -7 126 -21 167 -37l-8 -47c-44 19 -88 38 -159 45v-462c84 8 143 29 176 45c0 -31 0 -50 1 -59c-56 -16 -92 -27 -177 -30v-108h-33v110c-155 0 -235 109 -235 277c0 175 91 266 235 266zM120 265v-1c0 -145 69 -237 168 -237v463
c-80 0 -168 -88 -168 -225z" />
    <glyph glyph-name="approxequal" unicode="&#x2248;" horiz-adv-x="600" 
d="M207 216c-35 0 -72 -11 -99 -19c0 19 -2 24 -2 40c37 17 67 31 103 31c95 0 107 -28 210 -28c39 0 72 10 99 22v-45c-55 -23 -79 -28 -99 -28c-99 0 -114 27 -212 27z" />
    <glyph glyph-name="Oslash" unicode="&#xd8;" horiz-adv-x="824" 
d="M568 736h19l-10 -24c155 -59 222 -173 222 -356c0 -212 -105 -376 -375 -376c-39 0 -83 4 -131 12l-4 -12h-17l7 15c-167 56 -229 190 -232 361c0 236 158 375 377 375c45 0 89 -4 134 -15c1 4 3 7 5 10c1 3 3 4 4 7c1 1 1 2 1 3zM125 357c0 -179 82 -269 170 -314
l129 324l119 304c-61 16 -80 16 -120 16c-50 0 -298 -2 -298 -330zM424 25c41 0 308 1 308 332c0 172 -84 260 -173 308l-247 -628c40 -11 84 -12 112 -12z" />
    <glyph glyph-name="oslash" unicode="&#xf8;" horiz-adv-x="565" 
d="M287 533c55 0 117 -10 156 -41l18 26h11l-22 -32c64 -48 85 -142 85 -225c0 -181 -56 -278 -238 -278c-45 0 -94 8 -135 29c-2 -4 -4 -8 -7 -12l-12 -20h-12l22 37c-76 45 -104 154 -104 244c0 174 63 272 238 272zM121 261c0 -81 21 -144 60 -199l234 381
c-40 48 -92 44 -128 44c-70 0 -166 3 -166 -226zM297 29c58 0 160 1 160 232c0 44 -4 132 -36 175l-234 -380c41 -28 87 -27 110 -27z" />
    <glyph glyph-name="ordmasculine" unicode="&#xba;" horiz-adv-x="400" 
d="M104 577c0 -115 85 -110 99 -110c16 0 104 0 104 110c0 111 -88 110 -104 110s-99 0 -99 -110zM203 719c100 -1 141 -50 141 -142c0 -80 -39 -140 -141 -140c-101 0 -139 56 -139 140c0 93 52 141 139 142z" />
    <glyph glyph-name="ring" unicode="&#x2da;" horiz-adv-x="400" 
d="M94 590c0 -131 97 -125 113 -125c19 0 119 0 119 125s-100 125 -119 125s-113 0 -113 -125zM207 727c97 -1 136 -49 136 -137c0 -77 -37 -135 -136 -135s-134 54 -134 135c0 91 50 136 134 137z" />
    <glyph glyph-name="periodcentered" unicode="&#xb7;" horiz-adv-x="290" 
d="M106 306v85h85v-85h-85z" />
    <glyph glyph-name="quotesinglbase" unicode="&#x201a;" horiz-adv-x="278" 
d="M106 0v84h87c5 -39 8 -72 8 -99c0 -121 -53 -164 -109 -172v35c75 8 74 83 74 152h-60z" />
    <glyph glyph-name="quotedblbase" unicode="&#x201e;" horiz-adv-x="487" 
d="M102 0v84h86c6 -39 9 -72 9 -99c0 -121 -53 -164 -109 -172v35c73 8 73 82 73 152h-59zM328 0v84h87c7 -41 10 -68 10 -99c0 -123 -56 -164 -110 -172v35c74 8 72 79 72 151c-17 0 -40 1 -59 1z" />
    <glyph glyph-name="fraction" unicode="&#x2044;" horiz-adv-x="347" 
d="M343 753h12l-333 -773h-13z" />
    <glyph glyph-name="caron" unicode="&#x2c7;" horiz-adv-x="230" 
d="M42 754l80 -103l79 103h43l-103 -129h-39l-103 129h43z" />
    <glyph glyph-name="florin" unicode="&#x192;" horiz-adv-x="322" 
d="M422 748l1 -51c-36 19 -68 30 -111 30c-139 0 -135 -69 -135 -164v-46h129v-43h-129v-495c-5 -155 -87 -186 -127 -194v45c40 37 63 62 63 142v502h-86v43h86v46c0 169 71 216 199 216c35 0 79 -16 110 -31z" />
    <glyph glyph-name="middot" horiz-adv-x="290" 
d="M106 306v85h85v-85h-85z" />
    <glyph glyph-name="onesuperior" unicode="&#xb9;" horiz-adv-x="297" 
d="M140 726h23v-364h-15v353l-26 -4l-17 -3l14 7z" />
    <glyph glyph-name="ordfeminine" unicode="&#xaa;" horiz-adv-x="277" 
d="M194 484v89c-19 -8 -52 -8 -68 -8c-28 0 -58 1 -58 -55c0 -40 26 -57 57 -57c23 0 46 10 69 31zM228 434h-25l-12 23c-15 -17 -43 -26 -66 -26c-67 0 -91 28 -91 79c0 40 20 77 82 77c45 0 62 -2 78 13c0 76 -12 80 -60 80c-32 0 -59 -7 -74 -14l-10 25c23 8 57 14 89 14
c48 0 89 -15 89 -103v-168z" />
    <glyph glyph-name="space" unicode=" " horiz-adv-x="282" 
 />
    <glyph glyph-name="soliduslongoverlaycmb" unicode="&#x338;" horiz-adv-x="0" 
 />
    <glyph glyph-name="notequal" unicode="&#x2260;" horiz-adv-x="598" 
d="M59 169h501v-41h-501v41zM59 378h501v-43h-501v43z" />
    <glyph glyph-name="Ccedilla" unicode="&#xc7;" horiz-adv-x="680" 
d="M426 731c68 0 135 -16 192 -33v-61c-61 29 -123 52 -192 52c-16 0 -273 -6 -285 -334c4 -331 258 -325 285 -325c81 0 146 35 199 78v-69c-31 -21 -102 -60 -199 -60c-237 0 -364 169 -367 375c0 245 165 377 367 377zM384 -87c-12 0 -25 -2 -37 -5c8 8 29 59 51 97h7
l-41 -80c88 8 117 -37 117 -73c0 -45 -32 -68 -81 -73c-25 0 -44 1 -64 8v20c17 -7 33 -10 48 -10c19 0 61 4 61 55c0 41 -20 61 -61 61z" />
    <glyph glyph-name="gravecmb" unicode="&#x300;" 
d="M4 751h78l50 -112h-42z" />
    <glyph glyph-name="Agrave" unicode="&#xc0;" horiz-adv-x="640" 
d="M470 314l-127 368l-142 -368h269zM11 0l282 715h103l251 -715h-74l-90 272h-292l-111 -272h-69zM256 948h78l50 -112h-42z" />
    <glyph glyph-name="acutecmb" unicode="&#x301;" 
d="M130 742h102l-98 -128h-61z" />
    <glyph glyph-name="Aacute" unicode="&#xc1;" horiz-adv-x="640" 
d="M470 314l-127 368l-142 -368h269zM11 0l282 715h103l251 -715h-74l-90 272h-292l-111 -272h-69zM297 939h102l-98 -128h-61z" />
    <glyph glyph-name="circumflexcmb" unicode="&#x302;" horiz-adv-x="240" 
d="M201 625l-80 103l-79 -103h-43l103 129h39l103 -129h-43z" />
    <glyph glyph-name="Acircumflex" unicode="&#xc2;" horiz-adv-x="640" 
d="M470 314l-127 368l-142 -368h269zM11 0l282 715h103l251 -715h-74l-90 272h-292l-111 -272h-69zM399 822l-80 103l-79 -103h-43l103 129h39l103 -129h-43z" />
    <glyph glyph-name="tildecmb" unicode="&#x303;" 
d="M-17 662l-1 43c5 8 20 20 57 20c53 0 103 -28 159 -28c27 0 47 3 63 10v-38c-19 -15 -39 -23 -62 -23c-60 0 -102 26 -162 26c-19 0 -37 -3 -54 -10z" />
    <glyph glyph-name="Atilde" unicode="&#xc3;" horiz-adv-x="640" 
d="M470 314l-127 368l-142 -368h269zM11 0l282 715h103l251 -715h-74l-90 272h-292l-111 -272h-69zM181 859l-1 43c5 8 20 20 57 20c53 0 103 -28 159 -28c27 0 47 3 63 10v-38c-19 -15 -39 -23 -62 -23c-60 0 -102 26 -162 26c-19 0 -37 -3 -54 -10z" />
    <glyph glyph-name="dieresiscmb" unicode="&#x308;" horiz-adv-x="0" 
 />
    <glyph glyph-name="Adieresis" unicode="&#xc4;" horiz-adv-x="640" 
d="M470 314l-127 368l-142 -368h269zM11 0l282 715h103l251 -715h-74l-90 272h-292l-111 -272h-69zM376 904h84v-98h-84v98zM179 904h83v-98h-83v98zM376 904h84v-98h-84v98zM179 904h83v-98h-83v98z" />
    <glyph glyph-name="ringcmb" unicode="&#x30a;" horiz-adv-x="400" 
d="M94 590c0 -131 97 -125 113 -125c19 0 119 0 119 125s-100 125 -119 125s-113 0 -113 -125zM207 727c97 -1 136 -49 136 -137c0 -77 -37 -135 -136 -135s-134 54 -134 135c0 91 50 136 134 137z" />
    <glyph glyph-name="Aring" unicode="&#xc5;" horiz-adv-x="640" 
d="M470 314l-127 368l-142 -368h269zM11 0l282 715h103l251 -715h-74l-90 272h-292l-111 -272h-69zM226 843c0 -131 97 -125 113 -125c19 0 119 0 119 125s-100 125 -119 125s-113 0 -113 -125zM339 980c97 -1 136 -49 136 -137c0 -77 -37 -135 -136 -135s-134 54 -134 135
c0 91 50 136 134 137z" />
    <glyph glyph-name="cedillacmb" unicode="&#x327;" horiz-adv-x="245" 
d="M109 -90c-12 0 -25 -2 -37 -5c8 8 29 59 51 97h7l-41 -80c88 8 117 -37 117 -73c0 -45 -32 -68 -81 -73c-25 0 -44 1 -64 8v20c17 -7 33 -10 48 -10c19 0 61 4 61 55c0 41 -20 61 -61 61z" />
    <glyph glyph-name="Egrave" unicode="&#xc8;" horiz-adv-x="568" 
d="M94 0v714h415v-42h-352v-287h261v-43h-261v-299h376v-43h-439zM220 948h78l50 -112h-42z" />
    <glyph glyph-name="Eacute" unicode="&#xc9;" horiz-adv-x="568" 
d="M94 0v714h415v-42h-352v-287h261v-43h-261v-299h376v-43h-439zM261 939h102l-98 -128h-61z" />
    <glyph glyph-name="Ecircumflex" unicode="&#xca;" horiz-adv-x="568" 
d="M94 0v714h415v-42h-352v-287h261v-43h-261v-299h376v-43h-439zM363 822l-80 103l-79 -103h-43l103 129h39l103 -129h-43z" />
    <glyph glyph-name="Edieresis" unicode="&#xcb;" horiz-adv-x="568" 
d="M94 0v714h415v-42h-352v-287h261v-43h-261v-299h376v-43h-439zM340 904h84v-98h-84v98zM143 904h83v-98h-83v98zM340 904h84v-98h-84v98zM143 904h83v-98h-83v98z" />
    <glyph glyph-name="Igrave" unicode="&#xcc;" horiz-adv-x="259" 
d="M103 0v715h64v-715h-64zM65 948h78l50 -112h-42z" />
    <glyph glyph-name="Iacute" unicode="&#xcd;" horiz-adv-x="259" 
d="M103 0v715h64v-715h-64zM110 939h102l-98 -128h-61z" />
    <glyph glyph-name="Icircumflex" unicode="&#xce;" horiz-adv-x="259" 
d="M103 0v715h64v-715h-64zM209 822l-80 103l-79 -103h-43l103 129h39l103 -129h-43z" />
    <glyph glyph-name="Idieresis" unicode="&#xcf;" horiz-adv-x="259" 
d="M103 0v715h64v-715h-64zM186 904h84v-98h-84v98zM-11 904h83v-98h-83v98zM186 904h84v-98h-84v98zM-11 904h83v-98h-83v98z" />
    <glyph glyph-name="Ntilde" unicode="&#xd1;" horiz-adv-x="711" 
d="M91 0v714h95l397 -638v638h66v-714h-75l-419 673v-673h-64zM261 859l-1 43c5 8 20 20 57 20c53 0 103 -28 159 -28c27 0 47 3 63 10v-38c-19 -15 -39 -23 -62 -23c-60 0 -102 26 -162 26c-19 0 -37 -3 -54 -10z" />
    <glyph glyph-name="Ograve" unicode="&#xd2;" horiz-adv-x="824" 
d="M125 357c0 -343 251 -332 299 -332c41 0 308 1 308 332c0 336 -268 330 -309 330c-48 0 -298 -2 -298 -330zM424 731c261 -4 375 -130 375 -375c0 -212 -105 -376 -375 -376c-275 0 -374 151 -377 376c0 245 138 371 377 375zM348 948h78l50 -112h-42z" />
    <glyph glyph-name="Oacute" unicode="&#xd3;" horiz-adv-x="824" 
d="M125 357c0 -343 251 -332 299 -332c41 0 308 1 308 332c0 336 -268 330 -309 330c-48 0 -298 -2 -298 -330zM424 731c261 -4 375 -130 375 -375c0 -212 -105 -376 -375 -376c-275 0 -374 151 -377 376c0 245 138 371 377 375zM389 939h102l-98 -128h-61z" />
    <glyph glyph-name="Ocircumflex" unicode="&#xd4;" horiz-adv-x="824" 
d="M125 357c0 -343 251 -332 299 -332c41 0 308 1 308 332c0 336 -268 330 -309 330c-48 0 -298 -2 -298 -330zM424 731c261 -4 375 -130 375 -375c0 -212 -105 -376 -375 -376c-275 0 -374 151 -377 376c0 245 138 371 377 375zM491 822l-80 103l-79 -103h-43l103 129h39
l103 -129h-43z" />
    <glyph glyph-name="Otilde" unicode="&#xd5;" horiz-adv-x="824" 
d="M125 357c0 -343 251 -332 299 -332c41 0 308 1 308 332c0 336 -268 330 -309 330c-48 0 -298 -2 -298 -330zM424 731c261 -4 375 -130 375 -375c0 -212 -105 -376 -375 -376c-275 0 -374 151 -377 376c0 245 138 371 377 375zM273 859l-1 43c5 8 20 20 57 20
c53 0 103 -28 159 -28c27 0 47 3 63 10v-38c-19 -15 -39 -23 -62 -23c-60 0 -102 26 -162 26c-19 0 -37 -3 -54 -10z" />
    <glyph glyph-name="Odieresis" unicode="&#xd6;" horiz-adv-x="824" 
d="M125 357c0 -343 251 -332 299 -332c41 0 308 1 308 332c0 336 -268 330 -309 330c-48 0 -298 -2 -298 -330zM424 731c261 -4 375 -130 375 -375c0 -212 -105 -376 -375 -376c-275 0 -374 151 -377 376c0 245 138 371 377 375zM468 904h84v-98h-84v98zM271 904h83v-98h-83
v98zM468 904h84v-98h-84v98zM271 904h83v-98h-83v98z" />
    <glyph glyph-name="caroncmb" unicode="&#x30c;" horiz-adv-x="230" 
d="M42 754l80 -103l79 103h43l-103 -129h-39l-103 129h43z" />
    <glyph glyph-name="Scaron" unicode="&#x160;" horiz-adv-x="588" 
d="M531 689v-51c-93 43 -154 50 -227 50c-91 0 -169 -50 -169 -138c0 -84 57 -120 156 -147c111 -34 262 -81 262 -233c0 -157 -174 -190 -270 -190c-117 0 -192 34 -227 58v66c50 -37 135 -76 227 -76c109 0 194 63 194 142c0 46 -9 125 -183 171h1
c-152 43 -239 95 -239 210c0 93 86 180 249 180c130 0 188 -23 226 -42zM214 951l80 -103l79 103h43l-103 -129h-39l-103 129h43z" />
    <glyph glyph-name="Ugrave" unicode="&#xd9;" horiz-adv-x="717" 
d="M580 715h63v-409c0 -108 3 -319 -274 -319c-281 0 -282 212 -282 327v401h65v-409c0 -63 1 -272 217 -272c211 0 211 207 211 272v409zM294 948h78l50 -112h-42z" />
    <glyph glyph-name="Uacute" unicode="&#xda;" horiz-adv-x="717" 
d="M580 715h63v-409c0 -108 3 -319 -274 -319c-281 0 -282 212 -282 327v401h65v-409c0 -63 1 -272 217 -272c211 0 211 207 211 272v409zM336 939h102l-98 -128h-61z" />
    <glyph glyph-name="Ucircumflex" unicode="&#xdb;" horiz-adv-x="717" 
d="M580 715h63v-409c0 -108 3 -319 -274 -319c-281 0 -282 212 -282 327v401h65v-409c0 -63 1 -272 217 -272c211 0 211 207 211 272v409zM438 822l-80 103l-79 -103h-43l103 129h39l103 -129h-43z" />
    <glyph glyph-name="Udieresis" unicode="&#xdc;" horiz-adv-x="717" 
d="M580 715h63v-409c0 -108 3 -319 -274 -319c-281 0 -282 212 -282 327v401h65v-409c0 -63 1 -272 217 -272c211 0 211 207 211 272v409zM415 904h84v-98h-84v98zM218 904h83v-98h-83v98zM415 904h84v-98h-84v98zM218 904h83v-98h-83v98z" />
    <glyph glyph-name="Yacute" unicode="&#xdd;" horiz-adv-x="690" 
d="M318 268l-289 447h73l250 -396l253 396h74l-289 -447v-269h-72v269zM322 939h102l-98 -128h-61z" />
    <glyph glyph-name="Ydieresis" unicode="&#x178;" horiz-adv-x="690" 
d="M318 268l-289 447h73l250 -396l253 396h74l-289 -447v-269h-72v269zM401 904h84v-98h-84v98zM204 904h83v-98h-83v98zM401 904h84v-98h-84v98zM204 904h83v-98h-83v98z" />
    <glyph glyph-name="Zcaron" unicode="&#x17d;" horiz-adv-x="655" 
d="M102 50h539v-50h-607v67l548 605h-548v43h607v-66zM248 951l80 -103l79 103h43l-103 -129h-39l-103 129h43z" />
    <glyph glyph-name="agrave" unicode="&#xe0;" horiz-adv-x="463" 
d="M353 98l2 175c-60 -15 -97 -15 -142 -15c-48 0 -109 1 -109 -111c0 -77 50 -111 113 -111c44 0 93 21 136 62zM420 331v-331h-47l-33 37c-46 -24 -89 -44 -171 -44c-77 0 -131 54 -131 155c0 80 37 153 161 153c102 0 125 0 154 27c0 142 -29 157 -116 157
c-69 0 -117 -18 -148 -30c-7 19 -9 27 -17 44c47 20 107 34 171 34c96 0 177 -38 177 -202zM167 751h78l50 -112h-42z" />
    <glyph glyph-name="aacute" unicode="&#xe1;" horiz-adv-x="463" 
d="M353 98l2 175c-60 -15 -97 -15 -142 -15c-48 0 -109 1 -109 -111c0 -77 50 -111 113 -111c44 0 93 21 136 62zM420 331v-331h-47l-33 37c-46 -24 -89 -44 -171 -44c-77 0 -131 54 -131 155c0 80 37 153 161 153c102 0 125 0 154 27c0 142 -29 157 -116 157
c-69 0 -117 -18 -148 -30c-7 19 -9 27 -17 44c47 20 107 34 171 34c96 0 177 -38 177 -202zM209 742h102l-98 -128h-61z" />
    <glyph glyph-name="acircumflex" unicode="&#xe2;" horiz-adv-x="463" 
d="M353 98l2 175c-60 -15 -97 -15 -142 -15c-48 0 -109 1 -109 -111c0 -77 50 -111 113 -111c44 0 93 21 136 62zM420 331v-331h-47l-33 37c-46 -24 -89 -44 -171 -44c-77 0 -131 54 -131 155c0 80 37 153 161 153c102 0 125 0 154 27c0 142 -29 157 -116 157
c-69 0 -117 -18 -148 -30c-7 19 -9 27 -17 44c47 20 107 34 171 34c96 0 177 -38 177 -202zM311 625l-80 103l-79 -103h-43l103 129h39l103 -129h-43z" />
    <glyph glyph-name="atilde" unicode="&#xe3;" horiz-adv-x="463" 
d="M353 98l2 175c-60 -15 -97 -15 -142 -15c-48 0 -109 1 -109 -111c0 -77 50 -111 113 -111c44 0 93 21 136 62zM420 331v-331h-47l-33 37c-46 -24 -89 -44 -171 -44c-77 0 -131 54 -131 155c0 80 37 153 161 153c102 0 125 0 154 27c0 142 -29 157 -116 157
c-69 0 -117 -18 -148 -30c-7 19 -9 27 -17 44c47 20 107 34 171 34c96 0 177 -38 177 -202zM93 662l-1 43c5 8 20 20 57 20c53 0 103 -28 159 -28c27 0 47 3 63 10v-38c-19 -15 -39 -23 -62 -23c-60 0 -102 26 -162 26c-19 0 -37 -3 -54 -10z" />
    <glyph glyph-name="adieresis" unicode="&#xe4;" horiz-adv-x="463" 
d="M353 98l2 175c-60 -15 -97 -15 -142 -15c-48 0 -109 1 -109 -111c0 -77 50 -111 113 -111c44 0 93 21 136 62zM420 331v-331h-47l-33 37c-46 -24 -89 -44 -171 -44c-77 0 -131 54 -131 155c0 80 37 153 161 153c102 0 125 0 154 27c0 142 -29 157 -116 157
c-69 0 -117 -18 -148 -30c-7 19 -9 27 -17 44c47 20 107 34 171 34c96 0 177 -38 177 -202zM288 707h84v-98h-84v98zM91 707h83v-98h-83v98zM288 707h84v-98h-84v98zM91 707h83v-98h-83v98z" />
    <glyph glyph-name="aring" unicode="&#xe5;" horiz-adv-x="463" 
d="M353 98l2 175c-60 -15 -97 -15 -142 -15c-48 0 -109 1 -109 -111c0 -77 50 -111 113 -111c44 0 93 21 136 62zM420 331v-331h-47l-33 37c-46 -24 -89 -44 -171 -44c-77 0 -131 54 -131 155c0 80 37 153 161 153c102 0 125 0 154 27c0 142 -29 157 -116 157
c-69 0 -117 -18 -148 -30c-7 19 -9 27 -17 44c47 20 107 34 171 34c96 0 177 -38 177 -202zM117 590c0 -131 97 -125 113 -125c19 0 119 0 119 125s-100 125 -119 125s-113 0 -113 -125zM230 727c97 -1 136 -49 136 -137c0 -77 -37 -135 -136 -135s-134 54 -134 135
c0 91 50 136 134 137z" />
    <glyph glyph-name="egrave" unicode="&#xe8;" horiz-adv-x="521" 
d="M127 305l307 1c-1 49 -13 90 -33 125c-23 36 -57 55 -113 55c-116 0 -161 -88 -161 -181zM288 25c81 0 132 50 153 81c31 -24 37 -30 44 -35c-61 -72 -133 -87 -197 -87c-178 0 -232 102 -235 263c0 179 72 285 235 285c136 0 206 -86 205 -269l-374 1
c0 -140 10 -239 169 -239zM196 751h78l50 -112h-42z" />
    <glyph glyph-name="eacute" unicode="&#xe9;" horiz-adv-x="521" 
d="M127 305l307 1c-1 49 -13 90 -33 125c-23 36 -57 55 -113 55c-116 0 -161 -88 -161 -181zM288 25c81 0 132 50 153 81c31 -24 37 -30 44 -35c-61 -72 -133 -87 -197 -87c-178 0 -232 102 -235 263c0 179 72 285 235 285c136 0 206 -86 205 -269l-374 1
c0 -140 10 -239 169 -239zM238 742h102l-98 -128h-61z" />
    <glyph glyph-name="ecircumflex" unicode="&#xea;" horiz-adv-x="521" 
d="M127 305l307 1c-1 49 -13 90 -33 125c-23 36 -57 55 -113 55c-116 0 -161 -88 -161 -181zM288 25c81 0 132 50 153 81c31 -24 37 -30 44 -35c-61 -72 -133 -87 -197 -87c-178 0 -232 102 -235 263c0 179 72 285 235 285c136 0 206 -86 205 -269l-374 1
c0 -140 10 -239 169 -239zM340 625l-80 103l-79 -103h-43l103 129h39l103 -129h-43z" />
    <glyph glyph-name="edieresis" unicode="&#xeb;" horiz-adv-x="521" 
d="M127 305l307 1c-1 49 -13 90 -33 125c-23 36 -57 55 -113 55c-116 0 -161 -88 -161 -181zM288 25c81 0 132 50 153 81c31 -24 37 -30 44 -35c-61 -72 -133 -87 -197 -87c-178 0 -232 102 -235 263c0 179 72 285 235 285c136 0 206 -86 205 -269l-374 1
c0 -140 10 -239 169 -239zM317 707h84v-98h-84v98zM120 707h83v-98h-83v98zM317 707h84v-98h-84v98zM120 707h83v-98h-83v98z" />
    <glyph glyph-name="igrave" unicode="&#xec;" horiz-adv-x="241" 
d="M92 0v518h68v-518h-68zM56 751h78l50 -112h-42z" />
    <glyph glyph-name="iacute" unicode="&#xed;" horiz-adv-x="241" 
d="M92 0v518h68v-518h-68zM101 742h102l-98 -128h-61z" />
    <glyph glyph-name="icircumflex" unicode="&#xee;" horiz-adv-x="241" 
d="M92 0v518h68v-518h-68zM201 625l-80 103l-79 -103h-43l103 129h39l103 -129h-43z" />
    <glyph glyph-name="idieresis" unicode="&#xef;" horiz-adv-x="241" 
d="M92 0v518h68v-518h-68zM177 707h84v-98h-84v98zM-20 707h83v-98h-83v98zM177 707h84v-98h-84v98zM-20 707h83v-98h-83v98z" />
    <glyph glyph-name="ntilde" unicode="&#xf1;" horiz-adv-x="562" 
d="M445 0v320c0 104 -42 163 -126 163c-91 0 -171 -72 -171 -152v-331h-66v518h59l6 -103c26 63 121 118 202 118c95 0 160 -71 160 -220v-313h-64zM142 662l-1 43c5 8 20 20 57 20c53 0 103 -28 159 -28c27 0 47 3 63 10v-38c-19 -15 -39 -23 -62 -23
c-60 0 -102 26 -162 26c-19 0 -37 -3 -54 -10z" />
    <glyph glyph-name="ograve" unicode="&#xf2;" horiz-adv-x="563" 
d="M118 261c0 -219 101 -232 176 -232c58 0 160 1 160 232c0 224 -103 226 -171 226c-69 0 -165 3 -165 -226zM283 533c192 0 246 -123 246 -272c0 -181 -52 -278 -235 -278s-245 130 -245 278c0 174 60 272 234 272zM217 751h78l50 -112h-42z" />
    <glyph glyph-name="oacute" unicode="&#xf3;" horiz-adv-x="563" 
d="M118 261c0 -219 101 -232 176 -232c58 0 160 1 160 232c0 224 -103 226 -171 226c-69 0 -165 3 -165 -226zM283 533c192 0 246 -123 246 -272c0 -181 -52 -278 -235 -278s-245 130 -245 278c0 174 60 272 234 272zM259 742h102l-98 -128h-61z" />
    <glyph glyph-name="ocircumflex" unicode="&#xf4;" horiz-adv-x="563" 
d="M118 261c0 -219 101 -232 176 -232c58 0 160 1 160 232c0 224 -103 226 -171 226c-69 0 -165 3 -165 -226zM283 533c192 0 246 -123 246 -272c0 -181 -52 -278 -235 -278s-245 130 -245 278c0 174 60 272 234 272zM361 625l-80 103l-79 -103h-43l103 129h39l103 -129h-43
z" />
    <glyph glyph-name="otilde" unicode="&#xf5;" horiz-adv-x="563" 
d="M118 261c0 -219 101 -232 176 -232c58 0 160 1 160 232c0 224 -103 226 -171 226c-69 0 -165 3 -165 -226zM283 533c192 0 246 -123 246 -272c0 -181 -52 -278 -235 -278s-245 130 -245 278c0 174 60 272 234 272zM143 662l-1 43c5 8 20 20 57 20c53 0 103 -28 159 -28
c27 0 47 3 63 10v-38c-19 -15 -39 -23 -62 -23c-60 0 -102 26 -162 26c-19 0 -37 -3 -54 -10z" />
    <glyph glyph-name="odieresis" unicode="&#xf6;" horiz-adv-x="563" 
d="M118 261c0 -219 101 -232 176 -232c58 0 160 1 160 232c0 224 -103 226 -171 226c-69 0 -165 3 -165 -226zM283 533c192 0 246 -123 246 -272c0 -181 -52 -278 -235 -278s-245 130 -245 278c0 174 60 272 234 272zM338 707h84v-98h-84v98zM141 707h83v-98h-83v98z
M338 707h84v-98h-84v98zM141 707h83v-98h-83v98z" />
    <glyph glyph-name="scaron" unicode="&#x161;" horiz-adv-x="472" 
d="M235 528c91 0 155 -31 192 -47c0 -15 1 -35 1 -48c-65 28 -125 53 -193 53c-53 0 -108 -12 -108 -89c0 -64 37 -77 117 -98c141 -35 210 -80 210 -161c0 -96 -83 -153 -205 -153c-104 0 -180 41 -205 58c0 23 1 42 1 65c61 -36 129 -73 204 -73c71 0 135 20 135 103
c0 68 -86 91 -186 118c-110 32 -142 74 -142 143c0 48 30 129 179 129zM156 754l80 -103l79 103h43l-103 -129h-39l-103 129h43z" />
    <glyph glyph-name="ugrave" unicode="&#xf9;" horiz-adv-x="574" 
d="M146 518v-330c0 -103 24 -160 112 -160c89 0 187 67 187 176v314h65v-518h-60l-5 108c-31 -80 -104 -125 -203 -125c-89 0 -164 54 -164 214v321h68zM223 751h78l50 -112h-42z" />
    <glyph glyph-name="uacute" unicode="&#xfa;" horiz-adv-x="574" 
d="M146 518v-330c0 -103 24 -160 112 -160c89 0 187 67 187 176v314h65v-518h-60l-5 108c-31 -80 -104 -125 -203 -125c-89 0 -164 54 -164 214v321h68zM264 742h102l-98 -128h-61z" />
    <glyph glyph-name="ucircumflex" unicode="&#xfb;" horiz-adv-x="574" 
d="M146 518v-330c0 -103 24 -160 112 -160c89 0 187 67 187 176v314h65v-518h-60l-5 108c-31 -80 -104 -125 -203 -125c-89 0 -164 54 -164 214v321h68zM366 625l-80 103l-79 -103h-43l103 129h39l103 -129h-43z" />
    <glyph glyph-name="udieresis" unicode="&#xfc;" horiz-adv-x="574" 
d="M146 518v-330c0 -103 24 -160 112 -160c89 0 187 67 187 176v314h65v-518h-60l-5 108c-31 -80 -104 -125 -203 -125c-89 0 -164 54 -164 214v321h68zM343 707h84v-98h-84v98zM146 707h83v-98h-83v98zM343 707h84v-98h-84v98zM146 707h83v-98h-83v98z" />
    <glyph glyph-name="yacute" unicode="&#xfd;" horiz-adv-x="535" 
d="M257 -52l-227 570h68l193 -518l168 518h68l-261 -730h-58zM245 742h102l-98 -128h-61z" />
    <glyph glyph-name="ydieresis" unicode="&#xff;" horiz-adv-x="535" 
d="M257 -52l-227 570h68l193 -518l168 518h68l-261 -730h-58zM324 707h84v-98h-84v98zM127 707h83v-98h-83v98zM324 707h84v-98h-84v98zM127 707h83v-98h-83v98z" />
    <glyph glyph-name="zcaron" unicode="&#x17e;" horiz-adv-x="458" 
d="M109 53h330v-53h-402v53l333 421h-333v44h410v-44zM149 754l80 -103l79 103h43l-103 -129h-39l-103 129h43z" />
    <glyph glyph-name="backslash" unicode="\" horiz-adv-x="347" 
d="M310 -19l-304 772h47l304 -772h-47z" />
    <glyph glyph-name="g" unicode="g" horiz-adv-x="563" 
d="M470 518h45v-524c0 -33 -1 -217 -235 -217c-89 0 -152 35 -200 91l40 32c14 -15 30 -28 47 -40c29 -20 68 -39 113 -39c172 0 169 140 169 173v65c-39 -55 -79 -78 -158 -78c-181 0 -241 135 -241 282c0 172 59 270 231 270c101 0 144 -30 184 -91zM117 263
c0 -216 101 -236 174 -236c58 0 159 8 159 236c0 220 -95 223 -162 223c-69 0 -171 4 -171 -223z" />
    </font>
</defs>
</svg>
